<svg viewBox="0 0 32 32" fill="none" xmlns="http://www.w3.org/2000/svg">
  <defs>
    <linearGradient id="bg" x1="4" y1="2" x2="28" y2="30" gradientUnits="userSpaceOnUse">
      <stop stop-color="#991B1B"/>
      <stop offset="0.55" stop-color="#7F1D1D"/>
      <stop offset="1" stop-color="#451A03"/>
    </linearGradient>
    <linearGradient id="bell" x1="16" y1="8" x2="16" y2="21" gradientUnits="userSpaceOnUse">
      <stop stop-color="#FFF6D6"/>
      <stop offset="0.45" stop-color="#F0D78C"/>
      <stop offset="1" stop-color="#C9A227"/>
    </linearGradient>
    <radialGradient id="jade" cx="16" cy="13.2" r="2.4" gradientUnits="userSpaceOnUse">
      <stop stop-color="#E8FFF4"/>
      <stop offset="0.55" stop-color="#86EFAC"/>
      <stop offset="1" stop-color="#059669"/>
    </radialGradient>
    <linearGradient id="cloud" x1="8" y1="6" x2="24" y2="8" gradientUnits="userSpaceOnUse">
      <stop stop-color="#FFF8E7" stop-opacity="0.95"/>
      <stop offset="1" stop-color="#F0D78C" stop-opacity="0.55"/>
    </linearGradient>
  </defs>
  <rect width="32" height="32" rx="6" fill="url(#bg)"/>
  <rect x="2.5" y="2.5" width="27" height="27" rx="4.5" stroke="#E8C872" stroke-width="0.65" opacity="0.45"/>
  <path d="M6.5 8.2c1.2-.8 2.6-1.2 4-1.2 1.1 0 2.1.3 3 .8 1-.6 2.2-.9 3.5-.9 1.4 0 2.8.4 4 1.2" stroke="url(#cloud)" stroke-width="1.05" stroke-linecap="round" opacity="0.88"/>
  <path d="M11.2 7.4h9.6M13.2 7.4V8.6M18.8 7.4V8.6" stroke="#FFF6D6" stroke-width="0.95" stroke-linecap="round" opacity="0.82"/>
  <path d="M10.2 9.2h11.6l1.1 1.4c1.6 2.1 1.4 5.1-.5 7l-1.6 1.9c-.45.55-.05 1.35.65 1.35h-11c.7 0 1.1-.8.65-1.35l-1.6-1.9c-1.9-1.9-2.1-4.9-.5-7l1.1-1.4Z" fill="url(#bell)" stroke="#FFF6D6" stroke-width="0.55" stroke-opacity="0.45"/>
  <circle cx="16" cy="13.2" r="1.85" fill="url(#jade)"/>
  <circle cx="16" cy="18.65" r="0.95" fill="#FFF6D6" fill-opacity="0.92"/>
  <path d="M7.8 23.2q4.1-1.2 8.2-1.2t8.2 1.2" stroke="#F0D78C" stroke-width="0.75" stroke-linecap="round" opacity="0.55"/>
  <path d="M6 25.2q5.2-1.35 10-1.35t10 1.35" stroke="#F0D78C" stroke-width="0.6" stroke-linecap="round" opacity="0.32"/>
</svg>
